<svg width="512" height="512" viewBox="0 0 512 512" xmlns="http://www.w3.org/2000/svg">
  <defs>
    <linearGradient id="t" x1="0" y1="0" x2="1" y2="1">
      <stop offset="0" stop-color="#5b7cff"/><stop offset=".55" stop-color="#3f5bd6"/><stop offset="1" stop-color="#1e2a63"/>
    </linearGradient>
    <linearGradient id="m" x1="0" y1="0" x2="1" y2="1">
      <stop offset="0" stop-color="#4ade80"/><stop offset="1" stop-color="#16a34a"/>
    </linearGradient>
    <clipPath id="p"><rect x="-70" y="-70" width="140" height="140" rx="18"/></clipPath>
  </defs>
  <rect x="32" y="32" width="448" height="448" rx="112" fill="url(#t)"/>
  <g transform="translate(232 226)">
    <rect x="-80" y="-80" width="160" height="160" rx="30" fill="#8fb0ff" transform="rotate(-9)"/>
    <rect x="-84" y="-84" width="168" height="168" rx="30" fill="#f7fafc"/>
    <g clip-path="url(#p)">
      <rect x="-70" y="-70" width="140" height="140" fill="#eaf1f8"/>
      <circle cx="-28" cy="-30" r="20" fill="#f5b301"/>
      <path d="M-70 70 L-14 4 L26 46 L70 -4 L70 70 Z" fill="url(#m)"/>
    </g>
  </g>
  <g transform="translate(346 350)">
    <circle cx="0" cy="0" r="66" fill="#fff"/>
    <path d="M-26 0 H20 M4 -18 L26 0 L4 18" stroke="#2f6bff" stroke-width="16" stroke-linecap="round" stroke-linejoin="round" fill="none"/>
  </g>
</svg>
